<svg width="33" height="33" viewBox="0 0 33 33" fill="none" xmlns="http://www.w3.org/2000/svg">
<path d="M24.6249 0.25H8.37494C3.88763 0.25 0.249939 3.88769 0.249939 8.375V24.625C0.249939 29.1123 3.88763 32.75 8.37494 32.75H24.6249C29.1123 32.75 32.7499 29.1123 32.7499 24.625V8.375C32.7499 3.88769 29.1123 0.25 24.6249 0.25Z" fill="#FA4A0C"/>
<path d="M23.0001 15.4763C23.2007 16.8287 22.9697 18.2099 22.34 19.4234C21.7103 20.6369 20.714 21.621 19.4928 22.2357C18.2716 22.8504 16.8876 23.0643 15.5378 22.8471C14.188 22.6299 12.941 21.9926 11.9742 21.0259C11.0075 20.0591 10.3702 18.8122 10.153 17.4623C9.93579 16.1125 10.1497 14.7286 10.7644 13.5074C11.3791 12.2861 12.3632 11.2898 13.5767 10.6601C14.7903 10.0305 16.1715 9.79946 17.5239 10C18.9034 10.2046 20.1805 10.8474 21.1666 11.8335C22.1528 12.8196 22.7956 14.0968 23.0001 15.4763Z" stroke="white" stroke-width="2" stroke-linecap="round" stroke-linejoin="round"/>
<path d="M25.4376 7.5625H25.4538" stroke="white" stroke-width="2" stroke-linecap="round" stroke-linejoin="round"/>
</svg>
